# Blender 4.3.1
# www.blender.org
mtllib Collectable_Small.mtl
o Torus.001
v 0.500246 0.000000 -0.000000
v 0.538083 -0.000000 -0.065010
v 0.634378 -0.000000 0.000000
v 0.538083 -0.000000 0.065010
v 0.404708 0.294037 0.000000
v 0.435318 0.316277 -0.065010
v 0.513223 0.372878 0.000000
v 0.435318 0.316277 0.065010
v 0.154585 0.475762 0.000000
v 0.166277 0.511747 -0.065010
v 0.196034 0.603329 0.000000
v 0.166277 0.511747 0.065010
v -0.154585 0.475762 0.000000
v -0.166277 0.511747 -0.065010
v -0.196034 0.603329 0.000000
v -0.166277 0.511747 0.065010
v -0.404708 0.294037 0.000000
v -0.435318 0.316277 -0.065010
v -0.513223 0.372878 0.000000
v -0.435318 0.316277 0.065010
v -0.500246 0.000000 0.000000
v -0.538083 0.000000 -0.065010
v -0.634378 0.000000 0.000000
v -0.538083 0.000000 0.065010
v -0.404708 -0.294037 -0.000000
v -0.435318 -0.316277 -0.065010
v -0.513223 -0.372878 -0.000000
v -0.435318 -0.316277 0.065010
v -0.154585 -0.475762 -0.000000
v -0.166277 -0.511747 -0.065010
v -0.196034 -0.603329 -0.000000
v -0.166277 -0.511747 0.065010
v 0.154585 -0.475762 -0.000000
v 0.166277 -0.511747 -0.065010
v 0.196034 -0.603329 -0.000000
v 0.166277 -0.511747 0.065010
v 0.404707 -0.294037 -0.000000
v 0.435318 -0.316277 -0.065010
v 0.513223 -0.372878 -0.000000
v 0.435318 -0.316277 0.065010
v -0.000000 0.500000 -0.027764
v 0.134513 0.185142 -0.027764
v 0.475528 0.154509 -0.027764
v 0.217647 -0.070718 -0.027764
v 0.293892 -0.404508 -0.027764
v -0.000000 -0.228848 -0.027764
v -0.293893 -0.404508 -0.027764
v -0.217647 -0.070718 -0.027764
v -0.475529 0.154509 -0.027764
v -0.134514 0.185142 -0.027764
v 0.217647 -0.070718 0.027764
v 0.475528 0.154509 0.027764
v 0.293892 -0.404508 0.027764
v -0.000000 -0.228848 0.027764
v -0.293893 -0.404508 0.027764
v -0.217647 -0.070718 0.027764
v -0.000000 0.500000 0.027764
v -0.134514 0.185142 0.027764
v 0.134513 0.185142 0.027764
v -0.475529 0.154509 0.027764
vn -0.8321 -0.2704 -0.4843
vn 0.5505 0.1789 -0.8154
vn 0.5505 0.1789 0.8154
vn -0.8321 -0.2704 0.4843
vn -0.5143 -0.7078 -0.4843
vn 0.3402 0.4683 -0.8154
vn 0.3402 0.4683 0.8154
vn -0.5143 -0.7078 0.4843
vn -0.0000 -0.8749 -0.4843
vn -0.0000 0.5788 -0.8154
vn -0.0000 0.5788 0.8154
vn -0.0000 -0.8749 0.4843
vn 0.5143 -0.7078 -0.4843
vn -0.3402 0.4683 -0.8154
vn -0.3402 0.4683 0.8154
vn 0.5143 -0.7078 0.4843
vn 0.8321 -0.2704 -0.4843
vn -0.5505 0.1789 -0.8154
vn -0.5505 0.1789 0.8154
vn 0.8321 -0.2704 0.4843
vn 0.8321 0.2704 -0.4843
vn -0.5505 -0.1789 -0.8154
vn -0.5505 -0.1789 0.8154
vn 0.8321 0.2704 0.4843
vn 0.5143 0.7078 -0.4843
vn -0.3402 -0.4683 -0.8154
vn -0.3402 -0.4683 0.8154
vn 0.5143 0.7078 0.4843
vn -0.0000 0.8749 -0.4843
vn -0.0000 -0.5788 -0.8154
vn -0.0000 -0.5788 0.8154
vn -0.0000 0.8749 0.4843
vn -0.5143 0.7078 -0.4843
vn 0.3402 -0.4683 -0.8154
vn 0.3402 -0.4683 0.8154
vn -0.5143 0.7078 0.4843
vn -0.8321 0.2704 -0.4843
vn 0.5505 -0.1789 -0.8154
vn 0.5505 -0.1789 0.8154
vn -0.8321 0.2704 0.4843
vn -0.0000 -0.0000 -1.0000
vn -0.0000 -0.0000 1.0000
vn 0.5130 -0.8584 -0.0000
vn 0.6578 -0.7532 -0.0000
vn 0.0895 0.9960 -0.0000
vn -0.9749 0.2227 -0.0000
vn 0.9749 0.2227 -0.0000
vn -0.6578 -0.7532 -0.0000
vn -0.9196 0.3929 -0.0000
vn -0.5130 -0.8584 -0.0000
vn -0.0895 0.9960 -0.0000
vn 0.9196 0.3929 -0.0000
vt 0.600000 0.500000
vt 0.700000 0.500000
vt 0.700000 0.750000
vt 0.600000 0.750000
vt 0.700000 1.000000
vt 0.600000 1.000000
vt 0.600000 0.000000
vt 0.700000 0.000000
vt 0.700000 0.250000
vt 0.600000 0.250000
vt 0.800000 0.500000
vt 0.800000 0.750000
vt 0.800000 1.000000
vt 0.800000 0.000000
vt 0.800000 0.250000
vt 0.900000 0.500000
vt 0.900000 0.750000
vt 0.900000 1.000000
vt 0.900000 0.000000
vt 0.900000 0.250000
vt 1.000000 0.500000
vt 1.000000 0.750000
vt 1.000000 1.000000
vt 1.000000 0.000000
vt 1.000000 0.250000
vt -0.000000 0.500000
vt 0.100000 0.500000
vt 0.100000 0.750000
vt -0.000000 0.750000
vt 0.100000 1.000000
vt -0.000000 1.000000
vt -0.000000 0.000000
vt 0.100000 0.000000
vt 0.100000 0.250000
vt -0.000000 0.250000
vt 0.200000 0.500000
vt 0.200000 0.750000
vt 0.200000 1.000000
vt 0.200000 0.000000
vt 0.200000 0.250000
vt 0.300000 0.500000
vt 0.300000 0.750000
vt 0.300000 1.000000
vt 0.300000 0.000000
vt 0.300000 0.250000
vt 0.400000 0.500000
vt 0.400000 0.750000
vt 0.400000 1.000000
vt 0.400000 0.000000
vt 0.400000 0.250000
vt 0.500000 0.500000
vt 0.500000 0.750000
vt 0.500000 1.000000
vt 0.500000 0.000000
vt 0.500000 0.250000
vt 0.391068 0.444164
vt 0.478254 0.324164
vt 0.478254 0.175836
vt 0.391068 0.055836
vt 0.250000 0.010000
vt 0.108932 0.055836
vt 0.021746 0.175836
vt 0.021746 0.324164
vt 0.108932 0.444164
vt 0.250000 0.490000
s 0
f 1/1/1 5/2/1 6/3/1 2/4/1
f 2/4/2 6/3/2 7/5/2 3/6/2
f 3/7/3 7/8/3 8/9/3 4/10/3
f 4/10/4 8/9/4 5/2/4 1/1/4
f 5/2/5 9/11/5 10/12/5 6/3/5
f 6/3/6 10/12/6 11/13/6 7/5/6
f 7/8/7 11/14/7 12/15/7 8/9/7
f 8/9/8 12/15/8 9/11/8 5/2/8
f 9/11/9 13/16/9 14/17/9 10/12/9
f 10/12/10 14/17/10 15/18/10 11/13/10
f 11/14/11 15/19/11 16/20/11 12/15/11
f 12/15/12 16/20/12 13/16/12 9/11/12
f 13/16/13 17/21/13 18/22/13 14/17/13
f 14/17/14 18/22/14 19/23/14 15/18/14
f 15/19/15 19/24/15 20/25/15 16/20/15
f 16/20/16 20/25/16 17/21/16 13/16/16
f 17/26/17 21/27/17 22/28/17 18/29/17
f 18/29/18 22/28/18 23/30/18 19/31/18
f 19/32/19 23/33/19 24/34/19 20/35/19
f 20/35/20 24/34/20 21/27/20 17/26/20
f 21/27/21 25/36/21 26/37/21 22/28/21
f 22/28/22 26/37/22 27/38/22 23/30/22
f 23/33/23 27/39/23 28/40/23 24/34/23
f 24/34/24 28/40/24 25/36/24 21/27/24
f 25/36/25 29/41/25 30/42/25 26/37/25
f 26/37/26 30/42/26 31/43/26 27/38/26
f 27/39/27 31/44/27 32/45/27 28/40/27
f 28/40/28 32/45/28 29/41/28 25/36/28
f 29/41/29 33/46/29 34/47/29 30/42/29
f 30/42/30 34/47/30 35/48/30 31/43/30
f 31/44/31 35/49/31 36/50/31 32/45/31
f 32/45/32 36/50/32 33/46/32 29/41/32
f 33/46/33 37/51/33 38/52/33 34/47/33
f 34/47/34 38/52/34 39/53/34 35/48/34
f 35/49/35 39/54/35 40/55/35 36/50/35
f 36/50/36 40/55/36 37/51/36 33/46/36
f 37/51/37 1/1/37 2/4/37 38/52/37
f 38/52/38 2/4/38 3/6/38 39/53/38
f 39/54/39 3/7/39 4/10/39 40/55/39
f 40/55/40 4/10/40 1/1/40 37/51/40
f 42/56/41 43/57/41 44/58/41 45/59/41 46/60/41 47/61/41 48/62/41 49/63/41 50/64/41 41/65/41
f 59/56/42 57/65/42 58/64/42 60/63/42 56/62/42 55/61/42 54/60/42 53/59/42 51/58/42 52/57/42
f 47/61/43 46/60/43 54/60/43 55/61/43
f 44/58/44 43/57/44 52/57/44 51/58/44
f 43/57/45 42/56/45 59/56/45 52/57/45
f 48/62/46 47/61/46 55/61/46 56/62/46
f 45/59/47 44/58/47 51/58/47 53/59/47
f 49/63/48 48/62/48 56/62/48 60/63/48
f 41/65/49 50/64/49 58/64/49 57/65/49
f 46/60/50 45/59/50 53/59/50 54/60/50
f 50/64/51 49/63/51 60/63/51 58/64/51
f 42/56/52 41/65/52 57/65/52 59/56/52
